# xmcd CD database file
#
# Track frame offsets:
#	182
#	22380
#	38925
#	55912
#	73020
#	101287
#	115935
#	131552
#	150305
#	172832
#	193425
#	211382
#	239967
#	255217
#
# Disc length: 3578 seconds
#
# Revision: 4
# Processed by: cddbd v1.5.1PL2 Copyright (c) Steve Scherf et al.
# Submitted via: CDex 1.51
#
DISCID=c80df80e
DTITLE=Soul Music Collection - 9. - Disco Revolution
DYEAR=1900
DGENRE=
TTITLE0=Kool and The Gang - Get Down On It
TTITLE1=Thelma Houston - Don't Leave Me This Way
TTITLE2=Van McCoy and The Soul City Simphony - The Hustle
TTITLE3=Donna Summer - I Feel Love
TTITLE4=Barry White - Let The Music Play
TTITLE5=Gloria gaynor - I Will Survive
TTITLE6=Joe Tex - Ain't Gonna Bump No More
TTITLE7=Barry White - Love Unlimited Orchestra - Love's Theme
TTITLE8=Kool and The Gang - Celebration
TTITLE9=Barry White - You're The First, The Last, My Everything
TTITLE10=L.T.D. - Holding On (When Love Is Gone)
TTITLE11=Gloria Gaynor - Never Can Say Goodbye
TTITLE12=Donna Summer - Love To Love You Baby
TTITLE13=Rithchie Family - Brazil
EXTD=by David K. (Opatija City) - Croatia
EXTT0=
EXTT1=
EXTT2=
EXTT3=
EXTT4=
EXTT5=
EXTT6=
EXTT7=
EXTT8=
EXTT9=
EXTT10=
EXTT11=
EXTT12=
EXTT13=
PLAYORDER=
